<svg width="152" height="180" viewBox="0 0 152 180" fill="none" xmlns="http://www.w3.org/2000/svg">
<path d="M1 138.101V1C24.6535 19.0236 32.3037 30.7429 39.5 53.5V124.5C43.0831 137.087 46.8179 140.437 56 141H150.5C139.327 160.413 131.602 169.088 114.14 179H41.5C20.8811 169.039 11.3328 160.936 1 138.101Z" stroke="black"/>
<path d="M9 136.5V18.5C20.7561 28.8424 25.873 36.4863 31.5 54.5V126C37.257 144.224 43.4475 146.436 55 149H136C129.517 159.086 124.098 163.819 112 171H43C27.5395 163.863 18.3383 158.917 9 136.5Z" fill="black" stroke="black"/>
</svg>
